<svg width="64" height="64" version="1" xmlns="http://www.w3.org/2000/svg">
 <path d="m4 56v2c0 1.662 1.338 3 3 3h50c1.662 0 3-1.338 3-3v-2c0 1.662-1.338 3-3 3h-50c-1.662 0-3-1.338-3-3z" style="opacity:.2"/>
 <path transform="matrix(0,-1,-1,0,0,0)" d="m-57-60h50c1.662 0 3 1.338 3 3v50c0 1.662-1.338 3-3 3h-50c-1.662 0-3-1.338-3-3v-50c0-1.662 1.338-3 3-3z" style="fill:#37a0f2"/>
 <path d="m7 4c-1.662 0-3 1.338-3 3v1c0-1.662 1.338-3 3-3h50c1.662 0 3 1.338 3 3v-1c0-1.662-1.338-3-3-3h-50z" style="fill:#ffffff;opacity:.1"/>
 <g transform="scale(1.0051304 .99489577)" style="opacity:.2">
  <path d="m48.998618 16.415282q-1.29836 2.407867-5.311471 10.150811-2.195408 4.272783-6.043273 11.401957 0.330491 0.519344 3.824259 4.36721 2.053768 2.195408 5.830814 5.594749-1.581638 0.684589-5.169831 2.219014-2.006556 0.897049-5.641963 2.620326-0.897048-1.085901-3.682619-5.075405-1.558032-2.360654-2.998031-5.028193h-0.09443l-0.236061 8.120649h-13.054415l-0.637376-18.861623q-0.259672-6.184913-1.109508-17.398018h16.43015l-0.920655 15.910806h0.165246q0.991474-2.785571 3.186882-9.182943 0.897049-2.785571 2.313441-7.648518l6.68065 1.463605q3.257702 0.708197 6.468191 1.345573z"/>
 </g>
 <g transform="scale(1.0051304 .99489577)" style="fill:#ffffff">
  <path d="m48.998618 15.373309q-1.29836 2.407867-5.311471 10.150811-2.195408 4.272783-6.043273 11.401957 0.330491 0.519344 3.824259 4.36721 2.053768 2.195407 5.830814 5.594749-1.581638 0.684589-5.169831 2.219014-2.006556 0.897049-5.641963 2.620326-0.897048-1.085901-3.682619-5.075406-1.558032-2.360653-2.998031-5.028192h-0.09443l-0.236065 8.120649h-13.054411l-0.637376-18.861623q-0.259672-6.184913-1.109508-17.398018h16.43015l-0.920655 15.910806h0.165246q0.991474-2.785571 3.186882-9.182943 0.897049-2.785571 2.313441-7.648518l6.68065 1.463605q3.257702 0.708196 6.468191 1.345573z" style="fill:#ffffff"/>
 </g>
</svg>
