<svg width="24" height="24" version="1" xmlns="http://www.w3.org/2000/svg">
 <g transform="translate(1,1)">
  <path transform="matrix(0,-1,-1,0,0,0)" d="m-20-21h18c0.554 0 1 0.446 1 1v18c0 0.554-0.446 1-1 1h-18c-0.554 0-1-0.446-1-1v-18c0-0.554 0.446-1 1-1z" style="fill:#37a0f2"/>
  <path d="m2 1c-0.554 0-1 0.446-1 1v0.5c0-0.554 0.446-1 1-1h18c0.554 0 1 0.446 1 1v-0.5c0-0.554-0.446-1-1-1h-18z" fill="#fff" opacity=".2"/>
  <path d="m2 21.5c-0.554 0-1-0.446-1-1v-0.5c0 0.554 0.446 1 1 1h18c0.554 0 1-0.446 1-1v0.5c0 0.554-0.446 1-1 1h-18z" opacity=".2"/>
 </g>
 <g transform="scale(1.0051381 .99488817)" style="opacity:.2">
  <path d="m18.067666 6.5090958q-0.46368 0.8599159-1.896873 3.6251352-0.784041 1.52593-2.15822 4.071955 0.118027 0.185472 1.365748 1.559652 0.733458 0.78404 2.082346 1.998039-0.564847 0.244486-1.84629 0.792472-0.716597 0.320361-2.014901 0.935791-0.320361-0.387805-1.315166-1.812568-0.556416-0.843055-1.070679-1.795707h-0.03372l-0.0843 2.900109h-4.6621011l-0.2276248-6.736008q-0.092736-2.2088037-0.3962357-6.2133141h5.8676616l-0.328792 5.6821891h0.05901q0.354083-0.994804 1.138124-3.2794829 0.320361-0.9948046 0.826194-2.7314975l2.385845 0.522694q1.163416 0.2529164 2.30997 0.4805412z"/>
 </g>
 <g transform="scale(1.0051381 .99488817)" style="fill:#ffffff">
  <path d="m18.067666 6.1369797q-0.46368 0.8599159-1.896873 3.6251356-0.784041 1.5259297-2.15822 4.0719547 0.118027 0.185472 1.365748 1.559651 0.733458 0.784041 2.082346 1.99804-0.564847 0.244486-1.84629 0.792472-0.716597 0.320361-2.014901 0.935791-0.320361-0.387806-1.315166-1.812568-0.556416-0.843055-1.070679-1.795707h-0.03372l-0.0843 2.900109h-4.6621011l-0.2276248-6.736008q-0.092736-2.2088038-0.3962357-6.2133141h5.8676616l-0.328792 5.6821891h0.05901q0.354083-0.994804 1.138124-3.279483 0.320361-0.9948046 0.826194-2.7314975l2.385845 0.522694q1.163416 0.2529164 2.30997 0.4805412z" style="fill:#ffffff"/>
 </g>
</svg>
