<svg width="128" height="128" version="1" xmlns="http://www.w3.org/2000/svg">
 <path d="m8 111v4c0 3.324 2.676 6 6 6h100c3.324 0 6-2.676 6-6v-4c0 3.324-2.676 6-6 6h-100c-3.324 0-6-2.676-6-6z" style="opacity:.2"/>
 <path transform="matrix(0,-1,-1,0,0,0)" d="m-113-120h100c3.324 0 6 2.676 6 6v100c0 3.324-2.676 6-6 6h-100c-3.324 0-6-2.676-6-6v-100c0-3.324 2.676-6 6-6z" style="fill:#37a0f2"/>
 <path d="m14 7c-3.324 0-6 2.676-6 6v2c0-3.324 2.676-6 6-6h100c3.324 0 6 2.676 6 6v-2c0-3.324-2.676-6-6-6z" style="fill:#ffffff;opacity:.1"/>
 <g transform="scale(1.0051304 .99489578)" style="opacity:.2">
  <path d="m97.997236 31.825437q-2.596719 4.815734-10.622942 20.301622-4.390816 8.545566-12.086547 22.803915 0.660983 1.038687 7.648518 8.734418 4.107538 4.390816 11.66163 11.189499-3.163276 1.369179-10.339664 4.438029-4.013111 1.7941-11.283924 5.24065-1.794097-2.1718-7.36524-10.15081-3.116063-4.721307-5.99606-10.056385h-0.188852l-0.472131 16.241295h-26.10883l-1.274753-37.723243q-0.519344-12.369826-2.219014-34.796036h32.860299l-1.84131 31.821612h0.330492q1.982949-5.571143 6.373765-18.365886 1.794096-5.571142 4.626881-15.297036l13.3613 2.927211q6.515404 1.416392 12.936382 2.691145z"/>
 </g>
 <g transform="scale(1.0051304 .99489578)" style="fill:#ffffff">
  <path d="m97.997236 29.741483q-2.596719 4.815734-10.622942 20.301622-4.390816 8.545566-12.086547 22.803915 0.660983 1.038687 7.648518 8.734418 4.107538 4.390816 11.66163 11.189499-3.163276 1.369179-10.339664 4.438029-4.013111 1.794097-11.283924 5.240654-1.794097-2.1718-7.36524-10.150814-3.116063-4.721307-5.99606-10.056385h-0.188852l-0.472131 16.241298h-26.10883l-1.274753-37.723246q-0.519344-12.369825-2.219014-34.796036h32.860299l-1.84131 31.821612h0.330492q1.982949-5.571142 6.373765-18.365885 1.794096-5.571143 4.626881-15.297036l13.3613 2.92721q6.515404 1.416392 12.936382 2.691145z" style="fill:#ffffff"/>
 </g>
</svg>
