<svg width="40" height="40" version="1" xmlns="http://www.w3.org/2000/svg">
 <path d="m2.5 34.6875v1.25c0 1.03875 0.83625 1.875 1.875 1.875h31.25c1.03875 0 1.875-0.83625 1.875-1.875v-1.25c0 1.03875-0.83625 1.875-1.875 1.875h-31.25c-1.03875 0-1.875-0.83625-1.875-1.875z" style="opacity:.2"/>
 <path transform="matrix(0,-1,-1,0,0,0)" d="m-35.3125-37.5h31.25c1.03875 0 1.875 0.83625 1.875 1.875v31.25c0 1.03875-0.83625 1.875-1.875 1.875h-31.25c-1.03875 0-1.875-0.83625-1.875-1.875v-31.25c0-1.03875 0.83625-1.875 1.875-1.875z" style="fill:#37a0f2"/>
 <path d="m4.375 2.1875c-1.03875 0-1.875 0.83625-1.875 1.875v0.625c0-1.03875 0.83625-1.875 1.875-1.875h31.25c1.03875 0 1.875 0.83625 1.875 1.875v-0.625c0-1.03875-0.83625-1.875-1.875-1.875z" style="fill:#ffffff;opacity:.1"/>
 <g transform="scale(1.0051304 .99489579)" style="opacity:.2">
  <path d="m30.624138 9.9454389q-0.811475 1.5049171-3.31967 6.3442571-1.37213 2.67049-3.777046 7.126224 0.206557 0.32459 2.390162 2.729506 1.283606 1.37213 3.64426 3.496719-0.988524 0.427868-3.231145 1.386884-1.254098 0.560655-3.526227 1.637703-0.560655-0.678688-2.301638-3.172128-0.973769-1.475409-1.873769-3.142621h-0.05902l-0.147541 5.075406h-8.15901l-0.3983562-11.788515q-0.1622949-3.865571-0.6934421-10.873762h10.268844l-0.575409 9.9442541h0.103278q0.619672-1.740982 1.991802-5.739339 0.560655-1.740983 1.445901-4.7803245l4.175406 0.9147534q2.036064 0.4426226 4.04262 0.840983z"/>
 </g>
 <g transform="scale(1.0051304 .99489579)" style="fill:#ffffff">
  <path d="m30.624138 9.2941937q-0.811475 1.5049173-3.31967 6.3442573-1.37213 2.67049-3.777046 7.126224 0.206557 0.32459 2.390162 2.729506 1.283606 1.37213 3.64426 3.496719-0.988524 0.427868-3.231145 1.386884-1.254098 0.560655-3.526227 1.637703-0.560655-0.678688-2.301638-3.172128-0.973769-1.475409-1.873769-3.142621h-0.05902l-0.147541 5.075406h-8.15901l-0.3983562-11.788515q-0.1622949-3.865571-0.6934421-10.873762h10.268844l-0.575409 9.9442542h0.103278q0.619672-1.740982 1.991802-5.739339 0.560655-1.740983 1.445901-4.7803246l4.175406 0.9147534q2.036064 0.4426226 4.04262 0.8409829z" style="fill:#ffffff"/>
 </g>
 <path d="m2.5 34.6875v1.25c0 1.03875 0.83625 1.875 1.875 1.875h31.25c1.03875 0 1.875-0.83625 1.875-1.875v-1.25c0 1.03875-0.83625 1.875-1.875 1.875h-31.25c-1.03875 0-1.875-0.83625-1.875-1.875z" style="opacity:.2"/>
 <path transform="matrix(0,-1,-1,0,0,0)" d="m-35.3125-37.5h31.25c1.03875 0 1.875 0.83625 1.875 1.875v31.25c0 1.03875-0.83625 1.875-1.875 1.875h-31.25c-1.03875 0-1.875-0.83625-1.875-1.875v-31.25c0-1.03875 0.83625-1.875 1.875-1.875z" style="fill:#37a0f2"/>
 <path d="m4.375 2.1875c-1.03875 0-1.875 0.83625-1.875 1.875v0.625c0-1.03875 0.83625-1.875 1.875-1.875h31.25c1.03875 0 1.875 0.83625 1.875 1.875v-0.625c0-1.03875-0.83625-1.875-1.875-1.875z" style="fill:#ffffff;opacity:.1"/>
 <g transform="scale(1.0051304 .99489579)" style="opacity:.2">
  <path d="m30.624138 9.9454389q-0.811475 1.5049171-3.31967 6.3442571-1.37213 2.67049-3.777046 7.126224 0.206557 0.32459 2.390162 2.729506 1.283606 1.37213 3.64426 3.496719-0.988524 0.427868-3.231145 1.386884-1.254098 0.560655-3.526227 1.637703-0.560655-0.678688-2.301638-3.172128-0.973769-1.475409-1.873769-3.142621h-0.05902l-0.147541 5.075406h-8.15901l-0.3983562-11.788515q-0.1622949-3.865571-0.6934421-10.873762h10.268844l-0.575409 9.9442541h0.103278q0.619672-1.740982 1.991802-5.739339 0.560655-1.740983 1.445901-4.7803245l4.175406 0.9147534q2.036064 0.4426226 4.04262 0.840983z"/>
 </g>
 <g transform="scale(1.0051304 .99489579)" style="fill:#ffffff">
  <path d="m30.624138 9.2941937q-0.811475 1.5049173-3.31967 6.3442573-1.37213 2.67049-3.777046 7.126224 0.206557 0.32459 2.390162 2.729506 1.283606 1.37213 3.64426 3.496719-0.988524 0.427868-3.231145 1.386884-1.254098 0.560655-3.526227 1.637703-0.560655-0.678688-2.301638-3.172128-0.973769-1.475409-1.873769-3.142621h-0.05902l-0.147541 5.075406h-8.15901l-0.3983562-11.788515q-0.1622949-3.865571-0.6934421-10.873762h10.268844l-0.575409 9.9442542h0.103278q0.619672-1.740982 1.991802-5.739339 0.560655-1.740983 1.445901-4.7803246l4.175406 0.9147534q2.036064 0.4426226 4.04262 0.8409829z" style="fill:#ffffff"/>
 </g>
</svg>
