<svg width="192" height="192" version="1" xmlns="http://www.w3.org/2000/svg">
 <path d="m12 166.5v6c0 4.986 4.014 9 9 9h150c4.986 0 9-4.014 9-9v-6c0 4.986-4.014 9-9 9h-150c-4.986 0-9-4.014-9-9z" style="opacity:.2"/>
 <path transform="matrix(0,-1,-1,0,0,0)" d="m-169.5-180h150c4.986 0 9 4.014 9 9v150c0 4.986-4.014 9-9 9h-150c-4.986 0-9-4.014-9-9v-150c0-4.986 4.014-9 9-9z" style="fill:#37a0f2"/>
 <path d="m21 10.5c-4.986 0-9 4.014-9 9v3c0-4.986 4.014-9 9-9h150c4.986 0 9 4.014 9 9v-3c0-4.986-4.014-9-9-9z" style="fill:#ffffff;opacity:.1"/>
 <g transform="scale(1.0051304 .99489579)" style="opacity:.2">
  <path d="m146.99585 47.738166q-3.89508 7.2236-15.93441 30.452432-6.58622 12.818349-18.12982 34.205872 0.99147 1.55803 11.47278 13.10163 6.1613 6.58622 17.49244 16.78424-4.74491 2.05377-15.50949 6.65705-6.01967 2.69114-16.92589 7.86097-2.69115-3.2577-11.04786-15.22621-4.674094-7.08196-8.99409-15.08458h-0.283278l-0.708196 24.36195h-39.163244l-1.91213-56.584871q-0.779015-18.554737-3.328521-52.194051h49.290448l-2.761965 47.732416h0.495737q2.974424-8.356714 9.560649-27.548828 2.69114-8.356714 6.94032-22.945553l20.04195 4.390816q9.77311 2.124588 19.40457 4.036717z"/>
 </g>
 <g transform="scale(1.0051304 .99489579)" style="fill:#ffffff">
  <path d="m146.99585 44.612251q-3.89508 7.2236-15.93441 30.452431-6.58622 12.81835-18.12982 34.205868 0.99147 1.55803 11.47278 13.10163 6.1613 6.58622 17.49244 16.78425-4.74491 2.05377-15.50949 6.65704-6.01967 2.69115-16.92589 7.86098-2.69115-3.2577-11.04786-15.22622-4.674094-7.08196-8.99409-15.08457h-0.283278l-0.708196 24.36194h-39.163244l-1.91213-56.584866q-0.779015-18.554738-3.328521-52.194052h49.290448l-2.761965 47.732416h0.495737q2.974424-8.356713 9.560649-27.548827 2.69114-8.356714 6.94032-22.945554l20.04195 4.390816q9.77311 2.124588 19.40457 4.036718z" style="fill:#ffffff"/>
 </g>
</svg>
