<svg width="48" height="48" version="1" xmlns="http://www.w3.org/2000/svg">
 <path transform="matrix(0,-1,-1,0,0,0)" d="m-42-44h36c1.108 0 2 0.892 2 2v36c0 1.108-0.892 2-2 2h-36c-1.108 0-2-0.892-2-2v-36c0-1.108 0.892-2 2-2z" style="fill:#37a0f2"/>
 <path d="m6 4c-1.108 0-2 0.892-2 2v1c0-1.108 0.892-2 2-2h36c1.108 0 2 0.892 2 2v-1c0-1.108-0.892-2-2-2h-36z" fill="#fff" opacity=".2"/>
 <path d="m6 45c-1.108 0-2-0.892-2-2v-1c0 1.108 0.892 2 2 2h36c1.108 0 2-0.892 2-2v1c0 1.108-0.892 2-2 2h-36z" opacity=".2"/>
 <g transform="scale(1.0014428 .99855931)" style="opacity:.2">
  <path d="m36.178802 12.969926q-0.923983 1.713568-3.779931 7.223869-1.562372 3.040745-4.300722 8.114253 0.235195 0.369593 2.72155 3.107944 1.461574 1.562371 4.149525 3.981527-1.125579 0.487192-3.679133 1.579172-1.427974 0.638388-4.015127 1.864766-0.638389-0.772786-2.620753-3.611935-1.10878-1.679969-2.133561-3.578335h-0.0672l-0.167997 5.779096h-9.290231l-0.453592-13.422957q-0.184796-4.401521-0.789585-12.381376h11.692588l-0.655188 11.322995h0.117598q0.705587-1.982364 2.267959-6.535082 0.638388-1.982364 1.64637-5.443101l4.754314 1.041581q2.318358 0.503991 4.603116 0.957583z"/>
 </g>
 <g transform="scale(1.0014428 .99855931)" style="fill:#ffffff">
  <path d="m36.178802 12.228402q-0.923983 1.713569-3.779931 7.223869-1.562372 3.040745-4.300722 8.114253 0.235195 0.369593 2.72155 3.107944 1.461574 1.562371 4.149525 3.981528-1.125579 0.487191-3.679133 1.579171-1.427974 0.638389-4.015127 1.864766-0.638389-0.772786-2.620753-3.611934-1.10878-1.67997-2.133561-3.578336h-0.0672l-0.167997 5.779096h-9.290231l-0.453592-13.422957q-0.184796-4.40152-0.789585-12.381376h11.692588l-0.655188 11.322995h0.117598q0.705587-1.982364 2.267959-6.535082 0.638388-1.982364 1.64637-5.443101l4.754314 1.041581q2.318358 0.503991 4.603116 0.957583z" style="fill:#ffffff"/>
 </g>
</svg>
