<svg width="72" height="72" version="1" xmlns="http://www.w3.org/2000/svg">
 <path d="m4.5 62.4375v2.25c0 1.86975 1.50525 3.375 3.375 3.375h56.25c1.86975 0 3.375-1.50525 3.375-3.375v-2.25c0 1.86975-1.50525 3.375-3.375 3.375h-56.25c-1.86975 0-3.375-1.50525-3.375-3.375z" style="opacity:.2"/>
 <path transform="matrix(0,-1,-1,0,0,0)" d="m-63.5625-67.5h56.25c1.86975 0 3.375 1.50525 3.375 3.375v56.25c0 1.86975-1.50525 3.375-3.375 3.375h-56.25c-1.86975 0-3.375-1.50525-3.375-3.375v-56.25c0-1.86975 1.50525-3.375 3.375-3.375z" style="fill:#37a0f2"/>
 <path d="m7.875 3.9375c-1.86975 0-3.375 1.50525-3.375 3.375v1.125c0-1.86975 1.50525-3.375 3.375-3.375h56.25c1.86975 0 3.375 1.50525 3.375 3.375v-1.125c0-1.86975-1.50525-3.375-3.375-3.375z" style="fill:#ffffff;opacity:.1"/>
 <g transform="scale(1.0051304 .99489579)" style="opacity:.2">
  <path d="m55.123446 17.901794q-1.460655 2.70885-5.975405 11.419662-2.469834 4.806881-6.798682 12.827202 0.371802 0.584262 4.302291 4.913111 2.31049 2.469834 6.559666 6.294093-1.779342 0.770163-5.81606 2.496391-2.257375 1.00918-6.347208 2.947866-1.009179-1.221638-4.142947-5.709831-1.752785-2.655735-3.372784-5.656716h-0.10623l-0.265573 9.13573h-14.686217l-0.717049-21.219326q-0.29213-6.958027-1.248195-19.572771h18.483918l-1.035736 17.899657h0.185901q1.115409-3.133768 3.585243-10.330811 1.009179-3.133767 2.602621-8.604582l7.515731 1.646556q3.664915 0.79672 7.276715 1.513769z"/>
 </g>
 <g transform="scale(1.0051304 .99489579)" style="fill:#ffffff">
  <path d="m55.123446 16.729553q-1.460655 2.70885-5.975405 11.419662-2.469834 4.806881-6.798682 12.827202 0.371802 0.584262 4.302291 4.913111 2.31049 2.469834 6.559666 6.294093-1.779342 0.770163-5.81606 2.496391-2.257375 1.009179-6.347208 2.947866-1.009179-1.221638-4.142947-5.709831-1.752785-2.655735-3.372784-5.656716h-0.10623l-0.265573 9.135729h-14.686217l-0.717049-21.219326q-0.29213-6.958026-1.248195-19.57277h18.483918l-1.035736 17.899657h0.185901q1.115409-3.133768 3.585243-10.330811 1.009179-3.133768 2.602621-8.604583l7.515731 1.646556q3.664915 0.796721 7.276715 1.51377z" style="fill:#ffffff"/>
 </g>
</svg>
