<svg width="256" height="256" version="1" xmlns="http://www.w3.org/2000/svg">
 <path d="m16 222v8c0 6.648 5.352001 12 12 12h200c6.648 0 12-5.352 12-12v-8c0 6.648-5.352 12-12 12h-200c-6.647999 0-12-5.352-12-12z" style="opacity:.2"/>
 <path transform="matrix(0,-1,-1,0,0,0)" d="m-226-240h200c6.648 0 12 5.352 12 12v200c0 6.648-5.352 12-12 12h-200c-6.648 0-12-5.352-12-12v-200c0-6.648 5.352-12 12-12z" style="fill:#37a0f2"/>
 <path d="m28 14c-6.647999 0-12 5.352-12 12v4c0-6.647999 5.352001-12 12-12h200c6.648 0 12 5.352001 12 12v-4c0-6.648-5.352-12-12-12z" style="fill:#ffffff;opacity:.1"/>
 <g transform="scale(1.0051304 .99489578)" style="opacity:.2">
  <path d="m195.99446 63.650916q-5.19344 9.631466-21.24588 40.603244-8.78163 17.09113-24.17309 45.60782 1.32196 2.07738 15.29703 17.46884 8.21508 8.78163 23.32326 22.37899-6.32655 2.73836-20.67933 8.87606-8.02622 3.58819-22.56784 10.4813-3.5882-4.3436-14.73048-20.30162-6.23213-9.44261-11.99212-20.11277h-0.37771l-0.94426 32.4826h-52.217653l-2.549506-75.44649q-1.038687-24.73965-4.438028-69.592065h65.720597l-3.68262 63.643215h0.66098q3.9659-11.14228 12.74753-36.731765 3.58819-11.142285 9.25376-30.59407l26.7226 5.854421q13.03081 2.832784 25.87276 5.38229z"/>
 </g>
 <g transform="scale(1.0051304 .99489578)" style="fill:#ffffff">
  <path d="m195.99446 59.483008q-5.19344 9.631466-21.24588 40.603242-8.78163 17.09113-24.17309 45.60782 1.32196 2.07738 15.29703 17.46884 8.21508 8.78163 23.32326 22.379-6.32655 2.73835-20.67933 8.87605-8.02622 3.5882-22.56784 10.4813-3.5882-4.3436-14.73048-20.30162-6.23213-9.44261-11.99212-20.11276h-0.37771l-0.94426 32.48259h-52.217653l-2.549506-75.44649q-1.038687-24.739646-4.438028-69.592063h65.720597l-3.68262 63.643223h0.66098q3.9659-11.14229 12.74753-36.731773 3.58819-11.142285 9.25376-30.59407l26.7226 5.854421q13.03081 2.832784 25.87276 5.38229z" style="fill:#ffffff"/>
 </g>
</svg>
