<svg width="16" height="16" version="1" xmlns="http://www.w3.org/2000/svg">
 <path transform="matrix(0,-1,-1,0,0,0)" d="m-15.143-16h14.286c0.47477799 0 0.85699999 0.382222 0.85699999 0.857v14.286c0 0.47477799-0.382222 0.85699999-0.85699999 0.85699999h-14.286c-0.474778 0-0.857-0.382222-0.857-0.85699999v-14.286c0-0.474778 0.382222-0.857 0.857-0.857z" style="fill:#37a0f2"/>
 <g transform="scale(1.0051483 .9948781)" style="opacity:.2">
  <path d="m12.862282 3.3980627q-0.370948 0.6879398-1.517515 2.9001381-0.627239 1.2207558-1.7265934 3.257597 0.094423 0.1483792 1.0926104 1.2477342 0.586772 0.627239 1.665893 1.598448-0.451882 0.195591-1.477047 0.633984-0.573283 0.256291-1.6119373 0.74864-0.2562913-0.310247-1.0521431-1.450069-0.4451375-0.674451-0.8565524-1.43658h-0.026978l-0.067445 2.32011h-3.7297126l-0.1821017-5.388861q-0.0741896-1.7670609-0.3169919-4.9707019h4.6941771l-0.2630358 4.5457979h0.047212q0.2832688-0.7958518 0.910508-2.6236133 0.2562913-0.7958518 0.6609617-2.1852203l1.908696 0.4181594q0.930742 0.2023352 1.847995 0.3844369z"/>
 </g>
 <g transform="scale(1.0051483 .9948781)" style="fill:#ffffff">
  <path d="m12.862282 3.1003647q-0.370948 0.6879397-1.517515 2.9001381-0.627239 1.2207558-1.7265934 3.257597 0.094423 0.1483792 1.0926104 1.2477342 0.586772 0.627239 1.665893 1.598448-0.451882 0.195591-1.477047 0.633984-0.573283 0.256291-1.6119373 0.74864-0.2562913-0.310247-1.0521431-1.450069-0.4451375-0.674451-0.8565524-1.43658h-0.026978l-0.067445 2.32011h-3.7297126l-0.1821017-5.388861q-0.0741896-1.7670609-0.3169919-4.9707019h4.6941771l-0.2630358 4.5457979h0.047212q0.2832688-0.7958518 0.910508-2.6236133 0.2562913-0.7958519 0.6609617-2.1852204l1.908696 0.4181595q0.930742 0.2023352 1.847995 0.3844369z" style="fill:#ffffff"/>
 </g>
</svg>
