<svg width="22" height="22" version="1" xmlns="http://www.w3.org/2000/svg">
 <path transform="matrix(0,-1,-1,0,0,0)" d="m-20-21h18c0.554 0 1 0.446 1 1v18c0 0.554-0.446 1-1 1h-18c-0.554 0-1-0.446-1-1v-18c0-0.554 0.446-1 1-1z" style="fill:#37a0f2"/>
 <path d="m2 1c-0.554 0-1 0.446-1 1v0.5c0-0.554 0.446-1 1-1h18c0.554 0 1 0.446 1 1v-0.5c0-0.554-0.446-1-1-1h-18z" fill="#fff" opacity=".2"/>
 <path d="m2 21.5c-0.554 0-1-0.446-1-1v-0.5c0 0.554 0.446 1 1 1h18c0.554 0 1-0.446 1-1v0.5c0 0.554-0.446 1-1 1h-18z" opacity=".2"/>
 <g transform="scale(1.0051381 .99488817)" style="opacity:.2">
  <path d="m17.072778 5.5039593q-0.46368 0.8599159-1.896873 3.6251356-0.784041 1.5259291-2.15822 4.0719551 0.118027 0.185472 1.365749 1.559651 0.733457 0.784041 2.082345 1.99804-0.564847 0.244486-1.84629 0.792471-0.716597 0.320361-2.014901 0.935791-0.320361-0.387805-1.315166-1.812568-0.556416-0.843054-1.070679-1.795706h-0.03372l-0.08431 2.900108h-4.6620909l-0.2276248-6.736008q-0.092736-2.2088032-0.3962358-6.2133135h5.8676615l-0.328791 5.6821895h0.05901q0.354086-0.9948048 1.138127-3.2794834 0.320361-0.9948046 0.826194-2.7314975l2.385845 0.522694q1.163416 0.2529164 2.30997 0.4805412z"/>
 </g>
 <g transform="scale(1.0051381 .99488817)" style="fill:#ffffff">
  <path d="m17.072778 5.1318413q-0.46368 0.8599159-1.896873 3.6251356-0.784041 1.5259291-2.15822 4.0719551 0.118027 0.185472 1.365749 1.559651 0.733457 0.784041 2.082345 1.99804-0.564847 0.244486-1.84629 0.792471-0.716597 0.320361-2.014901 0.935791-0.320361-0.387805-1.315166-1.812568-0.556416-0.843054-1.070679-1.795706h-0.03372l-0.08431 2.900108h-4.6620909l-0.2276248-6.736008q-0.092736-2.2088032-0.3962358-6.2133135h5.8676615l-0.328791 5.6821895h0.05901q0.354086-0.9948048 1.138127-3.2794834 0.320361-0.9948046 0.826194-2.7314975l2.385845 0.522694q1.163416 0.2529164 2.30997 0.4805412z" style="fill:#ffffff"/>
 </g>
</svg>
