<svg width="96" height="96" version="1" xmlns="http://www.w3.org/2000/svg">
 <path d="m6 83.25v3c0 2.493 2.007 4.5 4.5 4.5h75c2.493 0 4.5-2.007 4.5-4.5v-3c0 2.493-2.007 4.5-4.5 4.5h-75c-2.493 0-4.5-2.007-4.5-4.5z" style="opacity:.2"/>
 <path transform="matrix(0,-1,-1,0,0,0)" d="m-84.75-90h75c2.493 0 4.5 2.007 4.5 4.5v75c0 2.493-2.007 4.5-4.5 4.5h-75c-2.493 0-4.5-2.007-4.5-4.5v-75c0-2.493 2.007-4.5 4.5-4.5z" style="fill:#37a0f2"/>
 <path d="m10.5 5.25c-2.493 0-4.5 2.007-4.5 4.5v1.5c0-2.493 2.007-4.5 4.5-4.5h75c2.493 0 4.5 2.007 4.5 4.5v-1.5c0-2.493-2.007-4.5-4.5-4.5z" style="fill:#ffffff;opacity:.1"/>
 <g transform="scale(1.0051304 .99489578)" style="opacity:.2">
  <path d="m73.497926 23.869083q-1.947539 3.6118-7.967206 15.226216-3.293112 6.409175-9.06491 17.102936 0.495737 0.779015 5.736388 6.550813 3.080653 3.293112 8.746222 8.392124-2.372457 1.026884-7.754747 3.328522-3.009833 1.345572-8.462943 3.930488-1.345573-1.628851-5.52393-7.613108-2.337047-3.54098-4.497045-7.542288h-0.141639l-0.354098 12.180972h-19.581622l-0.956065-28.292433q-0.389508-9.277369-1.664261-26.097026h24.645224l-1.380982 23.866208h0.247869q1.487211-4.178357 4.780323-13.774414 1.345573-4.178357 3.470161-11.472777l10.020975 2.195408q4.886553 1.062294 9.702286 2.018359z"/>
 </g>
 <g transform="scale(1.0051304 .99489578)" style="fill:#ffffff">
  <path d="m73.497926 22.306125q-1.947539 3.6118-7.967206 15.226216-3.293112 6.409175-9.06491 17.102936 0.495737 0.779015 5.736388 6.550814 3.080653 3.293111 8.746222 8.392123-2.372457 1.026885-7.754747 3.328522-3.009833 1.345572-8.462943 3.930488-1.345573-1.628851-5.52393-7.613108-2.337047-3.54098-4.497045-7.542288h-0.141639l-0.354098 12.180973h-19.581622l-0.956065-28.292434q-0.389508-9.277369-1.664261-26.097026h24.645224l-1.380982 23.866208h0.247869q1.487211-4.178357 4.780323-13.774414 1.345573-4.178357 3.470161-11.472776l10.020975 2.195407q4.886553 1.062295 9.702286 2.018359z" style="fill:#ffffff"/>
 </g>
</svg>
