<svg width="32" height="32" version="1" xmlns="http://www.w3.org/2000/svg">
 <path transform="matrix(0,-1,-1,0,0,0)" d="m-28.5-30h25c0.831 0 1.5 0.669 1.5 1.5v25c0 0.831-0.669 1.5-1.5 1.5h-25c-0.831 0-1.5-0.669-1.5-1.5v-25c0-0.831 0.669-1.5 1.5-1.5z" style="fill:#37a0f2"/>
 <path d="m3.5 2c-0.831 0-1.5 0.669-1.5 1.5v1c0-0.831 0.669-1.5 1.5-1.5h25c0.831 0 1.5 0.669 1.5 1.5v-1c0-0.831-0.669-1.5-1.5-1.5h-25z" fill="#fff" opacity=".1"/>
 <path d="m2 28.5v1c0 0.831 0.669 1.5 1.5 1.5h25c0.831 0 1.5-0.669 1.5-1.5v-1c0 0.831-0.669 1.5-1.5 1.5h-25c-0.831 0-1.5-0.669-1.5-1.5z" opacity=".2"/>
 <g transform="scale(1.0051304 .99489575)" style="opacity:.2">
  <path d="m24.499309 8.4589228q-0.64918 1.2039334-2.655736 5.0754052-1.097704 2.136392-3.021637 5.700979 0.165246 0.259672 1.91213 2.183605 1.026884 1.097704 2.915407 2.797374-0.790819 0.342295-2.584916 1.109507-1.003277 0.448525-2.820981 1.310163-0.448524-0.54295-1.84131-2.537703-0.779015-1.180326-1.499015-2.514096h-0.04721l-0.118033 4.060325h-6.52721l-0.3186882-9.430812q-0.129836-3.092456-0.5547536-8.6990087h8.2150748l-0.460327 7.9554027h0.08262q0.495738-1.392785 1.593442-4.591471 0.448524-1.3927859 1.15672-3.8242592l3.340325 0.7318027q1.628851 0.354098 3.234096 0.6727863z"/>
 </g>
 <g transform="scale(1.0051304 .99489575)" style="fill:#ffffff">
  <path d="m24.499309 7.9379362q-0.64918 1.2039334-2.655736 5.0754058-1.097704 2.136391-3.021637 5.700978 0.165246 0.259672 1.91213 2.183605 1.026884 1.097704 2.915407 2.797375-0.790819 0.342294-2.584916 1.109507-1.003277 0.448524-2.820981 1.310163-0.448524-0.542951-1.84131-2.537703-0.779015-1.180327-1.499015-2.514096h-0.04721l-0.118033 4.060324h-6.52721l-0.3186882-9.430811q-0.129836-3.092457-0.5547536-8.6990092h8.2150748l-0.460327 7.9554032h0.08262q0.495738-1.392786 1.593442-4.591472 0.448524-1.3927854 1.15672-3.8242587l3.340325 0.7318026q1.628851 0.3540981 3.234096 0.6727863z" style="fill:#ffffff"/>
 </g>
</svg>
