<svg width="1024" height="1024" version="1" xmlns="http://www.w3.org/2000/svg">
 <path d="m64 887.99999v32c0 26.592 21.407999 48.00001 48 48.00001h799.99999c26.592 0 48-21.40801 48-48.00001v-32c0 26.592-21.408 48-48 48h-799.99999c-26.592001 0-48-21.408-48-48z" style="opacity:.2"/>
 <path transform="matrix(0,-1,-1,0,0,0)" d="m-904-960h800c26.592 0 48 21.408 48 48v800c0 26.592-21.408 48-48 48h-800c-26.592 0-48-21.408-48-48v-800c0-26.592 21.408-48 48-48z" style="fill:#37a0f2"/>
 <path d="m112 56c-26.592001 0-48 21.408-48 48v16c0-26.592 21.407999-48 48-48h799.99999c26.592 0 48 21.408 48 48v-16c0-26.592-21.408-48-48-48z" style="fill:#ffffff;opacity:.1"/>
 <g transform="scale(1.0051304 .99489579)" style="opacity:.2">
  <path d="m783.97789 254.6035q-20.77376 38.52587-84.98354 162.41297-35.12652 68.36453-96.69237 182.43132 5.28786 8.3095 61.18814 69.87535 32.8603 35.12653 93.29304 89.51599-25.30621 10.95343-82.71731 35.50423-32.10489 14.35277-90.2714 41.92521-14.35277-17.37441-58.92191-81.20649-24.9285-37.77046-47.96848-80.45108h-1.51082l-3.77705 129.93038h-208.87064l-10.19802-301.78597q-4.15475-98.9586-17.75212-278.36828h262.8824l-14.73048 254.57289h2.64393q15.86359-44.56914 50.99012-146.92708 14.35278-44.56914 37.01505-122.37629l106.8904 23.41769q52.12323 11.33113 103.49106 21.52916z"/>
 </g>
 <g transform="scale(1.0051304 .99489579)" style="fill:#ffffff">
  <path d="m783.97789 237.93193q-20.77376 38.52587-84.98354 162.41297-35.12652 68.36453-96.69237 182.43132 5.28786 8.3095 61.18814 69.87535 32.8603 35.12653 93.29304 89.51599-25.30621 10.95343-82.71731 35.50423-32.10489 14.35277-90.2714 41.92521-14.35277-17.37441-58.92191-81.20649-24.9285-37.77046-47.96848-80.45108h-1.51082l-3.77705 129.93038h-208.87064l-10.19802-301.78597q-4.15475-98.9586-17.75212-278.36828h262.8824l-14.73048 254.57289h2.64393q15.86359-44.56914 50.99012-146.92708 14.35278-44.56914 37.01505-122.37629l106.8904 23.41769q52.12323 11.33113 103.49106 21.52916z" style="fill:#ffffff"/>
 </g>
</svg>
