<svg width="20" height="20" version="1" xmlns="http://www.w3.org/2000/svg">
 <path d="m 0,18.245613 v 0.701755 C 0,19.530526 0.4778571,20 1.0714286,20 H 18.928571 C 19.522143,20 20,19.530526 20,18.947368 v -0.701755 c 0,0.583159 -0.477857,1.052632 -1.071429,1.052632 H 1.0714286 C 0.4778571,19.298245 0,18.828772 0,18.245613 Z" style="opacity:.2"/>
 <path transform="matrix(0,-1,-1,0,0,0)" d="m-18.596491-20h17.543858c0.58315784 0 1.0526315 0.477857 1.0526315 1.071429v17.857142c0 0.59357137-0.46947365 1.0714285-1.0526315 1.0714285h-17.543858c-0.583158 0-1.052631-0.47785713-1.052631-1.0714285v-17.857142c0-0.593572 0.469473-1.071429 1.052631-1.071429z" style="fill:#37a0f2"/>
 <path d="m1.0714286 5e-7c-0.5935715 0-1.0714286 0.469474-1.0714286 1.052632v0.350877c0-0.583158 0.4778571-1.052632 1.0714286-1.052632h17.857142c0.593572 0 1.071429 0.469474 1.071429 1.052632v-0.350877c0-0.583158-0.477857-1.052632-1.071429-1.052632z" style="fill:#ffffff;opacity:.1"/>
 <g transform="scale(1.0140651 .98612999)" style="opacity:.2">
  <path d="m15.936567 4.3876905q-0.459615 0.8523757-1.880241 3.5933484-0.777166 1.512549-2.139296 4.0362491 0.116993 0.183846 1.353773 1.545976 0.727027 0.777166 2.064087 1.98052-0.559894 0.242342-1.830101 0.785523-0.710313 0.317551-1.997233 0.927585-0.317552-0.384405-1.303634-1.796674-0.5515369-0.835663-1.061291-1.779961h-0.033426l-0.083566 2.874678h-4.6212139l-0.2256289-6.6769423q-0.0919229-2.1894356-0.3927613-6.1588321h5.8162105l-0.3259084 5.6323647h0.058496q0.3509786-0.9860816 1.128145-3.2507268 0.317551-0.9860817 0.818949-2.7075463l2.364925 0.5181107q1.153214 0.2506987 2.289715 0.4763276z"/>
 </g>
 <g transform="scale(1.0140651 .98612999)" style="fill:#ffffff">
  <path d="m15.936567 4.0188341q-0.459615 0.8523756-1.880241 3.5933484-0.777166 1.512549-2.139296 4.0362495 0.116993 0.183846 1.353773 1.545976 0.727027 0.777166 2.064087 1.980519-0.559894 0.242343-1.830101 0.785523-0.710313 0.317552-1.997233 0.927585-0.317552-0.384404-1.303634-1.796674-0.5515369-0.835662-1.061291-1.779961h-0.033426l-0.083566 2.874679h-4.6212139l-0.2256289-6.6769428q-0.0919229-2.1894355-0.3927613-6.1588321h5.8162105l-0.3259084 5.6323648h0.058496q0.3509786-0.9860817 1.128145-3.2507269 0.317551-0.9860816 0.818949-2.7075462l2.364925 0.5181107q1.153214 0.2506987 2.289715 0.4763276z" style="fill:#ffffff"/>
 </g>
 <path d="m 0,18.245613 v 0.701755 C 0,19.530526 0.4778571,20 1.0714286,20 H 18.928571 C 19.522143,20 20,19.530526 20,18.947368 v -0.701755 c 0,0.583159 -0.477857,1.052632 -1.071429,1.052632 H 1.0714286 C 0.4778571,19.298245 0,18.828772 0,18.245613 Z" style="opacity:.2"/>
 <path transform="matrix(0,-1,-1,0,0,0)" d="m-18.596491-20h17.543858c0.58315784 0 1.0526315 0.477857 1.0526315 1.071429v17.857142c0 0.59357137-0.46947365 1.0714285-1.0526315 1.0714285h-17.543858c-0.583158 0-1.052631-0.47785713-1.052631-1.0714285v-17.857142c0-0.593572 0.469473-1.071429 1.052631-1.071429z" style="fill:#37a0f2"/>
 <path d="m1.0714286 5e-7c-0.5935715 0-1.0714286 0.469474-1.0714286 1.052632v0.350877c0-0.583158 0.4778571-1.052632 1.0714286-1.052632h17.857142c0.593572 0 1.071429 0.469474 1.071429 1.052632v-0.350877c0-0.583158-0.477857-1.052632-1.071429-1.052632z" style="fill:#ffffff;opacity:.1"/>
 <g transform="scale(1.0140651 .98612999)" style="opacity:.2">
  <path d="m15.936567 4.3876905q-0.459615 0.8523757-1.880241 3.5933484-0.777166 1.512549-2.139296 4.0362491 0.116993 0.183846 1.353773 1.545976 0.727027 0.777166 2.064087 1.98052-0.559894 0.242342-1.830101 0.785523-0.710313 0.317551-1.997233 0.927585-0.317552-0.384405-1.303634-1.796674-0.5515369-0.835663-1.061291-1.779961h-0.033426l-0.083566 2.874678h-4.6212139l-0.2256289-6.6769423q-0.0919229-2.1894356-0.3927613-6.1588321h5.8162105l-0.3259084 5.6323647h0.058496q0.3509786-0.9860816 1.128145-3.2507268 0.317551-0.9860817 0.818949-2.7075463l2.364925 0.5181107q1.153214 0.2506987 2.289715 0.4763276z"/>
 </g>
 <g transform="scale(1.0140651 .98612999)" style="fill:#ffffff">
  <path d="m15.936567 4.0188341q-0.459615 0.8523756-1.880241 3.5933484-0.777166 1.512549-2.139296 4.0362495 0.116993 0.183846 1.353773 1.545976 0.727027 0.777166 2.064087 1.980519-0.559894 0.242343-1.830101 0.785523-0.710313 0.317552-1.997233 0.927585-0.317552-0.384404-1.303634-1.796674-0.5515369-0.835662-1.061291-1.779961h-0.033426l-0.083566 2.874679h-4.6212139l-0.2256289-6.6769428q-0.0919229-2.1894355-0.3927613-6.1588321h5.8162105l-0.3259084 5.6323648h0.058496q0.3509786-0.9860817 1.128145-3.2507269 0.317551-0.9860816 0.818949-2.7075462l2.364925 0.5181107q1.153214 0.2506987 2.289715 0.4763276z" style="fill:#ffffff"/>
 </g>
 <path d="m 0,18.245613 v 0.701755 C 0,19.530526 0.4778571,20 1.0714286,20 H 18.928571 C 19.522143,20 20,19.530526 20,18.947368 v -0.701755 c 0,0.583159 -0.477857,1.052632 -1.071429,1.052632 H 1.0714286 C 0.4778571,19.298245 0,18.828772 0,18.245613 Z" style="opacity:.2"/>
 <path transform="matrix(0,-1,-1,0,0,0)" d="m-18.596491-20h17.543858c0.58315784 0 1.0526315 0.477857 1.0526315 1.071429v17.857142c0 0.59357137-0.46947365 1.0714285-1.0526315 1.0714285h-17.543858c-0.583158 0-1.052631-0.47785713-1.052631-1.0714285v-17.857142c0-0.593572 0.469473-1.071429 1.052631-1.071429z" style="fill:#37a0f2"/>
 <path d="m1.0714286 5e-7c-0.5935715 0-1.0714286 0.469474-1.0714286 1.052632v0.350877c0-0.583158 0.4778571-1.052632 1.0714286-1.052632h17.857142c0.593572 0 1.071429 0.469474 1.071429 1.052632v-0.350877c0-0.583158-0.477857-1.052632-1.071429-1.052632z" style="fill:#ffffff;opacity:.1"/>
 <g transform="scale(1.0140651 .98612999)" style="opacity:.2">
  <path d="m15.936567 4.3876905q-0.459615 0.8523757-1.880241 3.5933484-0.777166 1.512549-2.139296 4.0362491 0.116993 0.183846 1.353773 1.545976 0.727027 0.777166 2.064087 1.98052-0.559894 0.242342-1.830101 0.785523-0.710313 0.317551-1.997233 0.927585-0.317552-0.384405-1.303634-1.796674-0.5515369-0.835663-1.061291-1.779961h-0.033426l-0.083566 2.874678h-4.6212139l-0.2256289-6.6769423q-0.0919229-2.1894356-0.3927613-6.1588321h5.8162105l-0.3259084 5.6323647h0.058496q0.3509786-0.9860816 1.128145-3.2507268 0.317551-0.9860817 0.818949-2.7075463l2.364925 0.5181107q1.153214 0.2506987 2.289715 0.4763276z"/>
 </g>
 <g transform="scale(1.0140651 .98612999)" style="fill:#ffffff">
  <path d="m15.936567 4.0188341q-0.459615 0.8523756-1.880241 3.5933484-0.777166 1.512549-2.139296 4.0362495 0.116993 0.183846 1.353773 1.545976 0.727027 0.777166 2.064087 1.980519-0.559894 0.242343-1.830101 0.785523-0.710313 0.317552-1.997233 0.927585-0.317552-0.384404-1.303634-1.796674-0.5515369-0.835662-1.061291-1.779961h-0.033426l-0.083566 2.874679h-4.6212139l-0.2256289-6.6769428q-0.0919229-2.1894355-0.3927613-6.1588321h5.8162105l-0.3259084 5.6323648h0.058496q0.3509786-0.9860817 1.128145-3.2507269 0.317551-0.9860816 0.818949-2.7075462l2.364925 0.5181107q1.153214 0.2506987 2.289715 0.4763276z" style="fill:#ffffff"/>
 </g>
 <path d="m 0,18.245613 v 0.701755 C 0,19.530526 0.4778571,20 1.0714286,20 H 18.928571 C 19.522143,20 20,19.530526 20,18.947368 v -0.701755 c 0,0.583159 -0.477857,1.052632 -1.071429,1.052632 H 1.0714286 C 0.4778571,19.298245 0,18.828772 0,18.245613 Z" style="opacity:.2"/>
 <path transform="matrix(0,-1,-1,0,0,0)" d="m-18.596491-20h17.543858c0.58315784 0 1.0526315 0.477857 1.0526315 1.071429v17.857142c0 0.59357137-0.46947365 1.0714285-1.0526315 1.0714285h-17.543858c-0.583158 0-1.052631-0.47785713-1.052631-1.0714285v-17.857142c0-0.593572 0.469473-1.071429 1.052631-1.071429z" style="fill:#37a0f2"/>
 <path d="m1.0714286 5e-7c-0.5935715 0-1.0714286 0.469474-1.0714286 1.052632v0.350877c0-0.583158 0.4778571-1.052632 1.0714286-1.052632h17.857142c0.593572 0 1.071429 0.469474 1.071429 1.052632v-0.350877c0-0.583158-0.477857-1.052632-1.071429-1.052632z" style="fill:#ffffff;opacity:.1"/>
 <g transform="scale(1.0140651 .98612999)" style="opacity:.2">
  <path d="m15.936567 4.3876905q-0.459615 0.8523757-1.880241 3.5933484-0.777166 1.512549-2.139296 4.0362491 0.116993 0.183846 1.353773 1.545976 0.727027 0.777166 2.064087 1.98052-0.559894 0.242342-1.830101 0.785523-0.710313 0.317551-1.997233 0.927585-0.317552-0.384405-1.303634-1.796674-0.5515369-0.835663-1.061291-1.779961h-0.033426l-0.083566 2.874678h-4.6212139l-0.2256289-6.6769423q-0.0919229-2.1894356-0.3927613-6.1588321h5.8162105l-0.3259084 5.6323647h0.058496q0.3509786-0.9860816 1.128145-3.2507268 0.317551-0.9860817 0.818949-2.7075463l2.364925 0.5181107q1.153214 0.2506987 2.289715 0.4763276z"/>
 </g>
 <g transform="scale(1.0140651 .98612999)" style="fill:#ffffff">
  <path d="m15.936567 4.0188341q-0.459615 0.8523756-1.880241 3.5933484-0.777166 1.512549-2.139296 4.0362495 0.116993 0.183846 1.353773 1.545976 0.727027 0.777166 2.064087 1.980519-0.559894 0.242343-1.830101 0.785523-0.710313 0.317552-1.997233 0.927585-0.317552-0.384404-1.303634-1.796674-0.5515369-0.835662-1.061291-1.779961h-0.033426l-0.083566 2.874679h-4.6212139l-0.2256289-6.6769428q-0.0919229-2.1894355-0.3927613-6.1588321h5.8162105l-0.3259084 5.6323648h0.058496q0.3509786-0.9860817 1.128145-3.2507269 0.317551-0.9860816 0.818949-2.7075462l2.364925 0.5181107q1.153214 0.2506987 2.289715 0.4763276z" style="fill:#ffffff"/>
 </g>
</svg>
