<svg width="512" height="512" version="1" xmlns="http://www.w3.org/2000/svg">
 <path d="m32 444v16c0 13.296 10.704002 24 24 24h400c13.296 0 24-10.704 24-24v-16c0 13.296-10.704 24-24 24h-400c-13.295998 0-24-10.704-24-24z" style="opacity:.2"/>
 <path transform="matrix(0,-1,-1,0,0,0)" d="m-452-480h400c13.296 0 24 10.704 24 24v400c0 13.296-10.704 24-24 24h-400c-13.296 0-24-10.704-24-24v-400c0-13.296 10.704-24 24-24z" style="fill:#37a0f2"/>
 <path d="m56 28c-13.295998 0-24 10.704-24 24v8c0-13.296 10.704002-24 24-24h400c13.296 0 24 10.704 24 24v-8c0-13.296-10.704-24-24-24z" style="fill:#ffffff;opacity:.1"/>
 <g transform="scale(1.0051304 .99489579)" style="opacity:.2">
  <path d="m391.98888 127.30182q-10.38687 19.26293-42.49176 81.20648-17.56326 34.18226-48.34618 91.21564 2.64394 4.15475 30.59407 34.93767 16.43015 17.56326 46.64651 44.75799-12.6531 5.47671-41.35865 17.75211-16.05244 7.17639-45.13569 20.9626-7.17638-8.6872-29.46095-40.60324-12.46425-18.88522-23.98424-40.22553h-0.75541l-1.88852 64.96518h-104.4353l-5.09901-150.89296q-2.07738-49.47929-8.87606-139.18412h131.44118l-7.36524 127.28643h1.32196q7.9318-22.28457 25.49506-73.46353 7.17639-22.28457 18.50752-61.18814l53.44519 11.70884q26.06162 5.66557 51.74552 10.76458z"/>
 </g>
 <g transform="scale(1.0051304 .99489579)" style="fill:#ffffff">
  <path d="m391.98888 118.96604q-10.38687 19.26293-42.49176 81.20647-17.56326 34.18226-48.34618 91.21565 2.64394 4.15475 30.59407 34.93767 16.43015 17.56326 46.64651 44.75798-12.6531 5.47672-41.35865 17.75212-16.05244 7.17638-45.13569 20.9626-7.17638-8.68721-29.46095-40.60324-12.46425-18.88523-23.98424-40.22553h-0.75541l-1.88852 64.96518h-104.4353l-5.09901-150.89296q-2.07738-49.4793-8.87606-139.18412h131.44118l-7.36524 127.28642h1.32196q7.9318-22.28456 25.49506-73.46353 7.17639-22.28456 18.50752-61.188132l53.44519 11.708842q26.06162 5.66557 51.74552 10.76458z" style="fill:#ffffff"/>
 </g>
</svg>
