<svg width="36" height="36" version="1" xmlns="http://www.w3.org/2000/svg">
 <path d="m2.25 31.218544v1.124982c0 0.934861 0.752625 1.687474 1.6875 1.687474h28.125c0.934875 0 1.6875-0.752613 1.6875-1.687474v-1.124982c0 0.93486-0.752625 1.687473-1.6875 1.687473h-28.125c-0.934875 0-1.6875-0.752613-1.6875-1.687473z" style="opacity:.2"/>
 <path transform="matrix(0,-1,-1,0,0,0)" d="m-31.781032-33.75h28.12456c0.9348604 0 1.6874736 0.752625 1.6874736 1.6875v28.125c0 0.934875-0.7526132 1.6875-1.6874736 1.6875h-28.12456c-0.934861 0-1.687474-0.752625-1.687474-1.6875v-28.125c0-0.934875 0.752613-1.6875 1.687474-1.6875z" style="fill:#37a0f2"/>
 <path d="m3.9375 1.9690001c-0.934875 0-1.6875 0.7526132-1.6875 1.6874737v0.5624912c0-0.9348604 0.752625-1.6874737 1.6875-1.6874737h28.125c0.934875 0 1.6875 0.7526133 1.6875 1.6874737v-0.5624912c0-0.9348605-0.752625-1.6874737-1.6875-1.6874737z" style="fill:#ffffff;opacity:.1"/>
 <g transform="scale(1.0051382 .99488806)" style="opacity:.2">
  <path d="m27.561509 8.9511052q-0.730321 1.3544148-2.987679 5.7097868-1.234908 2.403422-3.399315 6.413552 0.1859 0.292129 2.151129 2.456536 1.155236 1.234908 3.279808 3.147022-0.889665 0.385079-2.908008 1.248186-1.128679 0.504586-3.173579 1.473922-0.504586-0.610814-2.071458-2.854893-0.876386-1.327858-1.686379-2.828337h-0.05311l-0.132786 4.56783h-7.3430558l-0.3585215-10.609581q-0.1460644-3.478987-0.624093-9.7863098h9.2418883l-0.517865 8.9497598h0.09295q0.5577-1.566872 1.792608-5.165366 0.504586-1.566872 1.3013-4.3022582l3.757837 0.8232716q1.832443 0.3983573 3.638329 0.7568788z"/>
 </g>
 <g transform="scale(1.0051382 .99488806)" style="fill:#ffffff">
  <path d="m27.561509 8.3649903q-0.730321 1.3544146-2.987679 5.7097867-1.234908 2.403422-3.399315 6.413552 0.1859 0.292129 2.151129 2.456536 1.155236 1.234908 3.279808 3.147023-0.889665 0.385078-2.908008 1.248186-1.128679 0.504585-3.173579 1.473921-0.504586-0.610814-2.071458-2.854893-0.876386-1.327858-1.686379-2.828337h-0.05311l-0.132786 4.56783h-7.3430558l-0.3585215-10.609581q-0.1460644-3.478987-0.624093-9.7863097h9.2418883l-0.517865 8.9497597h0.09295q0.5577-1.566872 1.792608-5.165366 0.504586-1.5668717 1.3013-4.3022581l3.757837 0.8232717q1.832443 0.3983572 3.638329 0.7568787z" style="fill:#ffffff"/>
 </g>
 <path d="m2.25 31.218544v1.124982c0 0.934861 0.752625 1.687474 1.6875 1.687474h28.125c0.934875 0 1.6875-0.752613 1.6875-1.687474v-1.124982c0 0.93486-0.752625 1.687473-1.6875 1.687473h-28.125c-0.934875 0-1.6875-0.752613-1.6875-1.687473z" style="opacity:.2"/>
 <path transform="matrix(0,-1,-1,0,0,0)" d="m-31.781032-33.75h28.12456c0.9348604 0 1.6874736 0.752625 1.6874736 1.6875v28.125c0 0.934875-0.7526132 1.6875-1.6874736 1.6875h-28.12456c-0.934861 0-1.687474-0.752625-1.687474-1.6875v-28.125c0-0.934875 0.752613-1.6875 1.687474-1.6875z" style="fill:#37a0f2"/>
 <path d="m3.9375 1.9690001c-0.934875 0-1.6875 0.7526132-1.6875 1.6874737v0.5624912c0-0.9348604 0.752625-1.6874737 1.6875-1.6874737h28.125c0.934875 0 1.6875 0.7526133 1.6875 1.6874737v-0.5624912c0-0.9348605-0.752625-1.6874737-1.6875-1.6874737z" style="fill:#ffffff;opacity:.1"/>
 <g transform="scale(1.0051382 .99488806)" style="opacity:.2">
  <path d="m27.561509 8.9511052q-0.730321 1.3544148-2.987679 5.7097868-1.234908 2.403422-3.399315 6.413552 0.1859 0.292129 2.151129 2.456536 1.155236 1.234908 3.279808 3.147022-0.889665 0.385079-2.908008 1.248186-1.128679 0.504586-3.173579 1.473922-0.504586-0.610814-2.071458-2.854893-0.876386-1.327858-1.686379-2.828337h-0.05311l-0.132786 4.56783h-7.3430558l-0.3585215-10.609581q-0.1460644-3.478987-0.624093-9.7863098h9.2418883l-0.517865 8.9497598h0.09295q0.5577-1.566872 1.792608-5.165366 0.504586-1.566872 1.3013-4.3022582l3.757837 0.8232716q1.832443 0.3983573 3.638329 0.7568788z"/>
 </g>
 <g transform="scale(1.0051382 .99488806)" style="fill:#ffffff">
  <path d="m27.561509 8.3649903q-0.730321 1.3544146-2.987679 5.7097867-1.234908 2.403422-3.399315 6.413552 0.1859 0.292129 2.151129 2.456536 1.155236 1.234908 3.279808 3.147023-0.889665 0.385078-2.908008 1.248186-1.128679 0.504585-3.173579 1.473921-0.504586-0.610814-2.071458-2.854893-0.876386-1.327858-1.686379-2.828337h-0.05311l-0.132786 4.56783h-7.3430558l-0.3585215-10.609581q-0.1460644-3.478987-0.624093-9.7863097h9.2418883l-0.517865 8.9497597h0.09295q0.5577-1.566872 1.792608-5.165366 0.504586-1.5668717 1.3013-4.3022581l3.757837 0.8232717q1.832443 0.3983572 3.638329 0.7568787z" style="fill:#ffffff"/>
 </g>
 <path d="m2.25 31.218544v1.124982c0 0.934861 0.752625 1.687474 1.6875 1.687474h28.125c0.934875 0 1.6875-0.752613 1.6875-1.687474v-1.124982c0 0.93486-0.752625 1.687473-1.6875 1.687473h-28.125c-0.934875 0-1.6875-0.752613-1.6875-1.687473z" style="opacity:.2"/>
 <path transform="matrix(0,-1,-1,0,0,0)" d="m-31.781032-33.75h28.12456c0.9348604 0 1.6874736 0.752625 1.6874736 1.6875v28.125c0 0.934875-0.7526132 1.6875-1.6874736 1.6875h-28.12456c-0.934861 0-1.687474-0.752625-1.687474-1.6875v-28.125c0-0.934875 0.752613-1.6875 1.687474-1.6875z" style="fill:#37a0f2"/>
 <path d="m3.9375 1.9690001c-0.934875 0-1.6875 0.7526132-1.6875 1.6874737v0.5624912c0-0.9348604 0.752625-1.6874737 1.6875-1.6874737h28.125c0.934875 0 1.6875 0.7526133 1.6875 1.6874737v-0.5624912c0-0.9348605-0.752625-1.6874737-1.6875-1.6874737z" style="fill:#ffffff;opacity:.1"/>
 <g transform="scale(1.0051382 .99488806)" style="opacity:.2">
  <path d="m27.561509 8.9511052q-0.730321 1.3544148-2.987679 5.7097868-1.234908 2.403422-3.399315 6.413552 0.1859 0.292129 2.151129 2.456536 1.155236 1.234908 3.279808 3.147022-0.889665 0.385079-2.908008 1.248186-1.128679 0.504586-3.173579 1.473922-0.504586-0.610814-2.071458-2.854893-0.876386-1.327858-1.686379-2.828337h-0.05311l-0.132786 4.56783h-7.3430558l-0.3585215-10.609581q-0.1460644-3.478987-0.624093-9.7863098h9.2418883l-0.517865 8.9497598h0.09295q0.5577-1.566872 1.792608-5.165366 0.504586-1.566872 1.3013-4.3022582l3.757837 0.8232716q1.832443 0.3983573 3.638329 0.7568788z"/>
 </g>
 <g transform="scale(1.0051382 .99488806)" style="fill:#ffffff">
  <path d="m27.561509 8.3649903q-0.730321 1.3544146-2.987679 5.7097867-1.234908 2.403422-3.399315 6.413552 0.1859 0.292129 2.151129 2.456536 1.155236 1.234908 3.279808 3.147023-0.889665 0.385078-2.908008 1.248186-1.128679 0.504585-3.173579 1.473921-0.504586-0.610814-2.071458-2.854893-0.876386-1.327858-1.686379-2.828337h-0.05311l-0.132786 4.56783h-7.3430558l-0.3585215-10.609581q-0.1460644-3.478987-0.624093-9.7863097h9.2418883l-0.517865 8.9497597h0.09295q0.5577-1.566872 1.792608-5.165366 0.504586-1.5668717 1.3013-4.3022581l3.757837 0.8232717q1.832443 0.3983572 3.638329 0.7568787z" style="fill:#ffffff"/>
 </g>
 <path d="m2.25 31.218544v1.124982c0 0.934861 0.752625 1.687474 1.6875 1.687474h28.125c0.934875 0 1.6875-0.752613 1.6875-1.687474v-1.124982c0 0.93486-0.752625 1.687473-1.6875 1.687473h-28.125c-0.934875 0-1.6875-0.752613-1.6875-1.687473z" style="opacity:.2"/>
 <path transform="matrix(0,-1,-1,0,0,0)" d="m-31.781032-33.75h28.12456c0.9348604 0 1.6874736 0.752625 1.6874736 1.6875v28.125c0 0.934875-0.7526132 1.6875-1.6874736 1.6875h-28.12456c-0.934861 0-1.687474-0.752625-1.687474-1.6875v-28.125c0-0.934875 0.752613-1.6875 1.687474-1.6875z" style="fill:#37a0f2"/>
 <path d="m3.9375 1.9690001c-0.934875 0-1.6875 0.7526132-1.6875 1.6874737v0.5624912c0-0.9348604 0.752625-1.6874737 1.6875-1.6874737h28.125c0.934875 0 1.6875 0.7526133 1.6875 1.6874737v-0.5624912c0-0.9348605-0.752625-1.6874737-1.6875-1.6874737z" style="fill:#ffffff;opacity:.1"/>
 <g transform="scale(1.0051382 .99488806)" style="opacity:.2">
  <path d="m27.561509 8.9511052q-0.730321 1.3544148-2.987679 5.7097868-1.234908 2.403422-3.399315 6.413552 0.1859 0.292129 2.151129 2.456536 1.155236 1.234908 3.279808 3.147022-0.889665 0.385079-2.908008 1.248186-1.128679 0.504586-3.173579 1.473922-0.504586-0.610814-2.071458-2.854893-0.876386-1.327858-1.686379-2.828337h-0.05311l-0.132786 4.56783h-7.3430558l-0.3585215-10.609581q-0.1460644-3.478987-0.624093-9.7863098h9.2418883l-0.517865 8.9497598h0.09295q0.5577-1.566872 1.792608-5.165366 0.504586-1.566872 1.3013-4.3022582l3.757837 0.8232716q1.832443 0.3983573 3.638329 0.7568788z"/>
 </g>
 <g transform="scale(1.0051382 .99488806)" style="fill:#ffffff">
  <path d="m27.561509 8.3649903q-0.730321 1.3544146-2.987679 5.7097867-1.234908 2.403422-3.399315 6.413552 0.1859 0.292129 2.151129 2.456536 1.155236 1.234908 3.279808 3.147023-0.889665 0.385078-2.908008 1.248186-1.128679 0.504585-3.173579 1.473921-0.504586-0.610814-2.071458-2.854893-0.876386-1.327858-1.686379-2.828337h-0.05311l-0.132786 4.56783h-7.3430558l-0.3585215-10.609581q-0.1460644-3.478987-0.624093-9.7863097h9.2418883l-0.517865 8.9497597h0.09295q0.5577-1.566872 1.792608-5.165366 0.504586-1.5668717 1.3013-4.3022581l3.757837 0.8232717q1.832443 0.3983572 3.638329 0.7568787z" style="fill:#ffffff"/>
 </g>
</svg>
